<?xml version="1.0" standalone="no"?>
<!DOCTYPE svg PUBLIC "-//W3C//DTD SVG 20010904//EN"
 "http://www.w3.org/TR/2001/REC-SVG-20010904/DTD/svg10.dtd">
<svg version="1.0" xmlns="http://www.w3.org/2000/svg"
 width="242.000000pt" height="241.000000pt" viewBox="0 0 242.000000 241.000000"
 preserveAspectRatio="xMidYMid meet">
<metadata>
Created by potrace 1.13, written by Peter Selinger 2001-2015
</metadata>
<g transform="translate(0.000000,241.000000) scale(0.100000,-0.100000)"
fill="#000000" stroke="none">
<path d="M0 1950 c0 -99 3 -130 13 -129 6 1 92 1 190 0 l177 -1 0 -200 0 -200
-190 0 -190 0 0 -100 c0 -55 3 -99 8 -99 4 1 87 1 185 0 l177 -1 0 -200 0
-200 -185 0 -185 0 0 -105 0 -105 345 0 345 0 0 -200 0 -200 -149 0 c-171 0
-162 6 -160 -98 2 -70 23 -102 67 -102 15 0 190 -3 388 -6 l361 -6 -5 98 c-2
55 -8 104 -13 109 -4 6 -48 12 -96 13 -122 4 -147 15 -173 73 -14 35 -20 69
-20 126 0 97 24 157 70 177 17 7 28 15 25 18 -3 3 45 5 107 4 100 -1 117 -4
144 -23 41 -30 66 -92 64 -162 -3 -101 -3 -99 38 -110 20 -6 65 -10 98 -10
120 1 164 -51 164 -191 0 -45 -5 -90 -10 -101 -11 -19 -3 -19 410 -19 l420 0
0 890 0 890 -256 0 -257 0 -33 -36 c-33 -35 -34 -37 -34 -123 0 -55 5 -93 13
-103 31 -38 61 -48 145 -48 82 0 85 -1 118 -34 l34 -34 0 -382 0 -382 -34 -34
c-33 -33 -36 -34 -116 -34 -80 0 -83 1 -116 34 -33 33 -34 36 -34 115 0 90
-11 124 -47 140 -15 7 -106 11 -251 11 -316 0 -299 -19 -301 354 l-1 188 -34
34 c-33 33 -37 34 -109 34 -127 0 -156 28 -157 153 0 77 -1 80 -35 113 -35 33
-37 34 -119 34 -81 0 -86 1 -115 31 -30 29 -31 34 -31 115 0 82 -1 84 -34 119
l-34 35 -291 0 -291 0 0 -130z"/>
</g>
</svg>
