<?xml version="1.0" standalone="no"?>
<!DOCTYPE svg PUBLIC "-//W3C//DTD SVG 20010904//EN"
 "http://www.w3.org/TR/2001/REC-SVG-20010904/DTD/svg10.dtd">
<svg version="1.0" xmlns="http://www.w3.org/2000/svg"
 width="242.000000pt" height="241.000000pt" viewBox="0 0 242.000000 241.000000"
 preserveAspectRatio="xMidYMid meet">
<metadata>
Created by potrace 1.13, written by Peter Selinger 2001-2015
</metadata>
<g transform="translate(0.000000,241.000000) scale(0.100000,-0.100000)"
fill="#000000" stroke="none">
<path d="M642 2399 c39 -22 43 -47 48 -314 l5 -260 110 -5 c61 -3 120 -11 131
-17 37 -21 54 -73 54 -167 0 -136 -32 -126 408 -126 443 0 412 -10 412 129 0
160 23 181 190 181 189 0 190 -2 190 -351 0 -337 -1 -339 -180 -339 l-88 0
-16 -34 c-10 -21 -16 -60 -16 -104 0 -158 -11 -163 -325 -162 -219 0 -232 -1
-252 -20 -22 -19 -22 -27 -22 -237 0 -172 3 -222 14 -240 14 -21 20 -22 238
-23 275 -1 267 -4 267 125 0 101 18 149 63 165 39 13 215 13 253 0 45 -16 64
-66 64 -165 0 -116 10 -125 137 -125 l93 0 0 1050 0 1050 -142 0 c-79 0 -137
-4 -130 -8 23 -15 50 -107 53 -178 1 -55 -3 -80 -24 -125 -30 -67 -40 -71
-187 -73 -117 -1 -149 12 -169 69 -32 94 -15 280 27 305 12 6 -28 9 -126 10
-127 0 -143 -2 -149 -17 -18 -52 -54 -64 -181 -65 -108 -1 -154 14 -174 57
l-11 25 -291 0 c-201 -1 -286 -4 -274 -11z"/>
</g>
</svg>
