<?xml version="1.0" standalone="no"?>
<!DOCTYPE svg PUBLIC "-//W3C//DTD SVG 20010904//EN"
 "http://www.w3.org/TR/2001/REC-SVG-20010904/DTD/svg10.dtd">
<svg version="1.0" xmlns="http://www.w3.org/2000/svg"
 width="242.000000pt" height="241.000000pt" viewBox="0 0 242.000000 241.000000"
 preserveAspectRatio="xMidYMid meet">
<metadata>
Created by potrace 1.13, written by Peter Selinger 2001-2015
</metadata>
<g transform="translate(0.000000,241.000000) scale(0.100000,-0.100000)"
fill="#000000" stroke="none">
<path d="M0 1360 l0 -1050 123 0 c161 0 167 4 167 125 0 151 36 180 219 173
l103 -3 34 -37 c33 -37 34 -39 34 -127 0 -135 -9 -131 262 -131 205 0 219 1
238 20 19 19 20 33 20 240 0 213 -1 220 -22 240 -21 19 -34 20 -259 20 -324 0
-327 2 -330 175 -3 117 -10 125 -118 125 -97 0 -147 18 -168 60 -9 18 -13 96
-13 278 0 217 2 259 17 289 23 49 62 63 179 63 163 0 194 -29 194 -184 0 -135
-30 -126 410 -126 440 0 410 -9 410 128 0 97 18 147 61 169 14 8 64 13 120 13
60 0 99 4 107 12 9 9 12 78 12 250 0 251 6 293 47 317 13 7 -63 10 -279 11
-245 0 -298 -2 -298 -14 0 -7 -19 -26 -42 -42 -40 -28 -46 -29 -145 -27 -113
2 -159 18 -178 61 -9 21 -15 22 -150 22 -126 0 -137 -1 -118 -15 46 -32 65
-156 42 -265 -16 -74 -55 -101 -152 -105 -88 -4 -163 9 -195 33 -13 9 -30 35
-38 57 -30 86 -7 247 39 280 20 14 7 15 -156 15 l-177 0 0 -1050z"/>
</g>
</svg>
