<?xml version="1.0" standalone="no"?>
<!DOCTYPE svg PUBLIC "-//W3C//DTD SVG 20010904//EN"
 "http://www.w3.org/TR/2001/REC-SVG-20010904/DTD/svg10.dtd">
<svg version="1.0" xmlns="http://www.w3.org/2000/svg"
 width="242.000000pt" height="241.000000pt" viewBox="0 0 242.000000 241.000000"
 preserveAspectRatio="xMidYMid meet">
<metadata>
Created by potrace 1.13, written by Peter Selinger 2001-2015
</metadata>
<g transform="translate(0.000000,241.000000) scale(0.100000,-0.100000)"
fill="#000000" stroke="none">
<path d="M2145 2080 c-143 -3 -261 -7 -262 -8 -33 -41 -43 -76 -43 -148 0 -87
-2 -91 -47 -122 -26 -18 -45 -22 -111 -22 -72 0 -84 -3 -111 -26 -30 -25 -31
-28 -31 -117 -1 -73 -4 -96 -18 -112 -30 -34 -62 -46 -115 -45 -99 3 -108 1
-143 -34 l-34 -34 0 -229 c0 -243 -6 -279 -50 -303 -11 -6 -114 -10 -245 -10
-299 0 -305 -3 -305 -149 0 -79 -1 -81 -35 -116 -35 -34 -38 -35 -113 -35 -76
0 -78 1 -110 36 l-33 35 5 247 c2 136 5 254 7 262 3 13 24 16 108 19 165 4
179 15 182 143 1 67 -2 93 -15 113 -32 48 -57 57 -155 53 -68 -2 -91 0 -91 10
0 6 -3 11 -7 11 -29 -5 -31 5 -31 102 0 110 -10 136 -61 167 -23 14 -49 16
-155 14 l-127 -3 2 -155 c1 -144 2 -154 17 -141 26 23 90 37 173 37 41 0 79 4
85 10 6 6 30 -9 68 -44 49 -46 57 -58 50 -78 -8 -24 -6 -166 2 -180 8 -12 -15
-48 -31 -48 -8 0 -22 -11 -31 -25 -16 -24 -19 -25 -142 -25 -119 0 -127 1
-159 26 l-33 25 0 -590 0 -591 448 0 447 0 -3 104 c-5 174 22 206 182 213 50
2 96 9 103 15 8 7 13 37 14 87 1 104 16 150 58 175 42 24 156 33 234 16 53
-11 59 -15 78 -53 35 -68 24 -297 -14 -297 -6 0 -7 -3 -4 -7 16 -15 -50 -32
-133 -34 -116 -2 -124 -8 -121 -90 1 -35 -3 -79 -8 -98 l-10 -33 362 5 c199 3
380 8 401 10 53 6 66 27 66 108 0 93 -7 99 -126 99 -151 0 -174 27 -174 206
l0 106 39 39 39 39 271 0 271 0 0 110 0 110 -106 0 c-193 0 -214 18 -214 188
0 100 10 149 33 164 7 4 74 8 150 8 l137 0 0 125 0 125 -128 0 c-135 0 -144 3
-176 50 -12 19 -16 49 -16 128 0 180 23 202 210 202 l110 0 0 135 c0 74 -3
134 -7 133 -5 -1 -125 -5 -268 -8z"/>
</g>
</svg>
